<svg width="60" height="60" viewBox="0 0 60 60" fill="none" xmlns="http://www.w3.org/2000/svg">
<path d="M49.3696 43.3384H34.7058V39.9346C42.7704 37.3591 47.2169 28.7309 44.6414 20.6662C42.066 12.6018 33.4378 8.15517 25.3733 10.7308C17.3087 13.3063 12.8622 21.9343 15.4377 29.9989C16.9481 34.7216 20.6506 38.4242 25.3733 39.9346V43.3384H10.7093C10.3429 43.3384 10.0444 43.6371 10.0444 44.0034V49.3348C10.0444 49.7011 10.3429 49.9996 10.7093 49.9996H49.3696C49.7359 49.9996 50.0347 49.7011 50.0347 49.3348V44.0034C50.0347 43.6371 49.7359 43.3384 49.3696 43.3384ZM16.0464 25.3438C16.0464 17.6118 22.3131 11.345 30.0452 11.3507C37.7772 11.3507 44.0385 17.6175 44.0385 25.3495C44.0385 33.0816 37.7717 39.3428 30.0394 39.3428C28.749 39.3428 27.464 39.1625 26.2242 38.8129C20.1998 37.0998 16.0464 31.5993 16.0464 25.3438ZM26.7089 40.3064C26.7426 40.3121 26.7822 40.3178 26.8159 40.3291C26.9062 40.346 26.9962 40.3627 27.0807 40.3797C27.3062 40.4248 27.5316 40.4642 27.7627 40.4981C27.8812 40.5151 27.9994 40.5318 28.1121 40.5488C28.3206 40.5769 28.5235 40.5939 28.732 40.6163C28.856 40.6278 28.9744 40.639 29.0983 40.6445C29.3519 40.6615 29.6055 40.6672 29.8649 40.6727C29.9267 40.6727 29.9831 40.6784 30.0394 40.6784C30.1015 40.6784 30.1579 40.6727 30.2142 40.6727C30.4678 40.6727 30.7272 40.6615 30.9808 40.6445C31.1047 40.639 31.2229 40.6278 31.3471 40.6163C31.5556 40.5996 31.7583 40.5769 31.967 40.5488C32.0852 40.5318 32.2036 40.5206 32.3164 40.4981C32.5418 40.4642 32.7727 40.4248 32.9981 40.3797C33.0884 40.3627 33.1787 40.346 33.2632 40.3291C33.2969 40.3233 33.3363 40.3178 33.3702 40.3064V43.3384H26.7089V40.3064ZM48.6991 48.6698H11.38V44.6685H48.7048V48.6698H48.6991Z" fill="#061538" stroke="#061538" stroke-width="0.625"/>
<path d="M28.7044 27.6485C29.9782 28.3866 31.6125 27.9472 32.3451 26.6735C32.9142 25.6873 34.3909 19.7529 34.6839 18.5751C34.774 18.2201 34.5543 17.8595 34.1937 17.7692C33.9737 17.7129 33.7371 17.7749 33.5737 17.9326C32.6945 18.7724 28.2987 23.0216 27.7294 24.0078C26.9968 25.2815 27.4309 26.9159 28.7044 27.6485ZM28.8847 24.6728C30.1133 23.2188 31.4208 21.8326 32.8129 20.5307C32.3845 22.3847 31.8434 24.2108 31.1953 26.0029C30.829 26.6453 30.0176 26.865 29.3752 26.5044C28.7326 26.1381 28.5129 25.3267 28.8735 24.6841C28.8792 24.6841 28.8847 24.6786 28.8847 24.6728Z" fill="#061538" stroke="#061538" stroke-width="0.625"/>
<path d="M30.0393 14.6759C30.4057 14.6759 30.7044 14.3772 30.7044 14.0109V12.6753C30.7044 12.309 30.4057 12.0103 30.0393 12.0103C29.673 12.0103 29.3745 12.309 29.3745 12.6753V14.0109C29.3745 14.3772 29.673 14.6759 30.0393 14.6759Z" fill="#061538" stroke="#061538" stroke-width="0.625"/>
<path d="M24.2862 14.0441C24.1002 13.7287 23.6945 13.6215 23.3733 13.8075C23.0576 13.9935 22.9506 14.3937 23.1309 14.7092L23.796 15.8645C23.9763 16.1857 24.382 16.2984 24.7032 16.1126C25.0244 15.9321 25.1371 15.5208 24.9568 15.2052L24.9513 15.1994L24.2862 14.0441Z" fill="#061538" stroke="#061538" stroke-width="0.625"/>
<path d="M20.5588 19.1005L19.4035 18.4354C19.0823 18.2551 18.6766 18.3678 18.4963 18.6833C18.3157 18.999 18.423 19.4047 18.7384 19.585L19.8937 20.2558C20.2094 20.4416 20.6208 20.3346 20.8069 20.0189C20.9927 19.7034 20.8857 19.292 20.57 19.106C20.5645 19.1005 20.5588 19.1005 20.5588 19.1005Z" fill="#061538" stroke="#061538" stroke-width="0.625"/>
<path d="M19.3752 25.3433C19.3752 24.977 19.0764 24.6785 18.7101 24.6785H17.3745C17.0082 24.6785 16.7095 24.977 16.7095 25.3433C16.7095 25.7096 17.0082 26.0083 17.3745 26.0083H18.7101C19.0764 26.0083 19.3752 25.7096 19.3752 25.3433Z" fill="#061538" stroke="#061538" stroke-width="0.625"/>
<path d="M19.8944 30.4279L18.7391 31.0928C18.4179 31.2733 18.3052 31.679 18.4912 32.0002C18.6715 32.3214 19.0772 32.4341 19.3986 32.2481L19.4041 32.2426L20.5594 31.5832C20.8806 31.4027 20.9933 30.997 20.8075 30.6758C20.627 30.3546 20.2213 30.2419 19.9001 30.4279H19.8944Z" fill="#061538" stroke="#061538" stroke-width="0.625"/>
<path d="M24.7085 34.5746C24.3873 34.3886 23.9814 34.5013 23.7956 34.817L23.1305 35.9723C22.9445 36.288 23.0515 36.6992 23.3672 36.8852C23.6829 37.0712 24.0941 36.9643 24.2801 36.6486L24.2858 36.6429L24.9509 35.4876C25.1367 35.1664 25.0297 34.7606 24.7085 34.5746Z" fill="#061538" stroke="#061538" stroke-width="0.625"/>
<path d="M30.0393 36.0073C29.673 36.0073 29.3745 36.3058 29.3745 36.6722V38.008C29.3745 38.3743 29.673 38.6728 30.0393 38.6728C30.4057 38.6728 30.7044 38.3743 30.7044 38.008V36.6722C30.7044 36.3058 30.4057 36.0073 30.0393 36.0073Z" fill="#061538" stroke="#061538" stroke-width="0.625"/>
<path d="M35.7954 36.6427C35.9814 36.9583 36.3871 37.0653 36.7083 36.8795C37.024 36.6935 37.131 36.2933 36.9507 35.9778L36.2856 34.8225C36.1053 34.5011 35.6996 34.3884 35.3784 34.5744C35.057 34.7547 34.9443 35.1607 35.1303 35.4818L35.1361 35.4873L35.7954 36.6427Z" fill="#061538" stroke="#061538" stroke-width="0.625"/>
<path d="M39.5197 31.5822L40.675 32.2471C40.9962 32.4276 41.4019 32.3149 41.5822 31.9992C41.7625 31.6835 41.6555 31.2778 41.3398 31.0975L40.1845 30.4269C39.8691 30.2409 39.4576 30.3479 39.2716 30.6636C39.0856 30.979 39.1928 31.3905 39.5083 31.5765C39.514 31.5822 39.5197 31.5822 39.5197 31.5822Z" fill="#061538" stroke="#061538" stroke-width="0.625"/>
<path d="M40.7021 25.3431C40.7021 25.7094 41.0007 26.0082 41.367 26.0082H42.7028C43.0691 26.0082 43.3676 25.7094 43.3676 25.3431C43.3676 24.9768 43.0691 24.6783 42.7028 24.6783H41.367C41.0007 24.6726 40.7021 24.9713 40.7021 25.3431Z" fill="#061538" stroke="#061538" stroke-width="0.625"/>
<path d="M39.8521 20.345C39.9705 20.345 40.0832 20.3168 40.1845 20.255L41.3398 19.5899C41.6555 19.4039 41.7625 18.9982 41.5767 18.677C41.3907 18.3613 40.9904 18.2543 40.675 18.4346L39.5197 19.0997C39.1983 19.2855 39.0913 19.6914 39.2773 20.0126C39.3955 20.2154 39.6154 20.345 39.8521 20.345Z" fill="#061538" stroke="#061538" stroke-width="0.625"/>
<path d="M35.3697 16.1078C35.6909 16.2938 36.0966 16.1811 36.2826 15.8654L36.9477 14.7101C37.128 14.3889 37.0153 13.9832 36.6998 13.8029C36.3841 13.6224 35.9784 13.7296 35.7981 14.0451L35.1273 15.1949C34.9413 15.516 35.0485 15.9218 35.3697 16.1078Z" fill="#061538" stroke="#061538" stroke-width="0.625"/>
<path d="M29.7066 25.9178C30.0278 26.1036 30.4335 25.9909 30.6196 25.6754L30.9522 25.1007C31.138 24.785 31.031 24.3735 30.7153 24.1875C30.3999 24.0017 29.9884 24.1087 29.8024 24.4244L29.7969 24.4299L29.4643 25.0047C29.2782 25.3261 29.3854 25.7318 29.7066 25.9178Z" fill="#061538" stroke="#061538" stroke-width="0.625"/>
</svg>
