<svg width="60" height="60" viewBox="0 0 60 60" fill="none" xmlns="http://www.w3.org/2000/svg">
<path d="M30.0062 20.9749C30.0045 20.9749 30.0012 20.9749 29.9995 20.9749C26.3045 20.9799 23.3095 23.9715 23.2979 27.6665C23.2929 31.3665 26.2895 34.3699 29.9895 34.3749C33.6895 34.3799 36.6929 31.3832 36.6979 27.6832C36.7029 23.9832 33.7079 20.9799 30.0062 20.9749ZM30.0062 33.1582C26.9779 33.1632 24.5195 30.7115 24.5145 27.6832C24.5095 24.6549 26.9612 22.1965 29.9895 22.1915H29.9995C33.0229 22.1949 35.4745 24.6432 35.4812 27.6665C35.4862 30.6949 33.0345 33.1532 30.0062 33.1582Z" fill="#061538" stroke="#061538" stroke-width="0.625"/>
<path d="M31.5151 26.2319L31.5161 26.208L31.5136 26.1843C31.4633 25.7205 31.1389 25.3324 30.6916 25.2L30.2904 25.0813V25.4997V27.123V27.3908L30.5551 27.4318C31.4052 27.5634 32.0504 28.2666 32.1097 29.123C32.0504 29.9804 31.4104 30.6844 30.5603 30.8247L30.2987 30.8678V31.133V31.748C30.2987 31.9121 30.1653 32.0455 30.0012 32.0455C29.8371 32.0455 29.7037 31.9121 29.7037 31.748V31.133V30.8675L29.4418 30.8246C28.5923 30.6854 27.9518 29.98 27.892 29.1225C27.8943 28.9594 28.0235 28.8304 28.186 28.8288C28.352 28.8272 28.4854 28.959 28.4871 29.1227L28.4872 29.1382L28.4889 29.1537C28.5391 29.6121 28.8564 29.9986 29.3003 30.1336L29.7037 30.2563V29.8347V28.2013V27.9346L29.4403 27.8927C28.5962 27.7584 27.9554 27.0614 27.8911 26.2096C27.9554 25.3533 28.5945 24.6512 29.4427 24.5096L29.7037 24.466V24.2013V23.5863C29.7037 23.4222 29.8371 23.2888 30.0012 23.2888C30.1653 23.2888 30.2987 23.4222 30.2987 23.5863V24.208V24.4734L30.5607 24.5164C31.4106 24.6557 32.0512 25.3616 32.1105 26.2197C32.1105 26.2242 32.1106 26.2283 32.1107 26.2317L32.1111 26.2459C32.1111 26.2468 32.1111 26.2475 32.1111 26.2481L32.1107 26.2574C32.1033 26.4223 31.9637 26.5497 31.8001 26.5425C31.6352 26.5351 31.5078 26.3955 31.5151 26.2319ZM29.2959 27.2161L29.702 27.3437V26.918V25.4963V25.0767L29.3 25.1969C28.8558 25.3297 28.5352 25.7167 28.4871 26.1772L28.4833 26.2129L28.4878 26.2486C28.5448 26.7018 28.8612 27.0796 29.2959 27.2161ZM31.513 29.158L31.5174 29.1228L31.5137 29.0875C31.4654 28.6207 31.1367 28.2336 30.6867 28.1057L30.2887 27.9926V28.4063V29.8347V30.2563L30.6921 30.1336C31.1332 29.9995 31.4561 29.6176 31.513 29.158Z" fill="#061538" stroke="#061538" stroke-width="0.625"/>
<path d="M49.7112 39.1947C49.7078 39.1914 49.7028 39.1864 49.6995 39.1831L49.5662 39.0497C48.4162 37.9014 46.8478 37.2697 45.2212 37.2997C45.1762 37.2964 45.1312 37.3031 45.0878 37.3164H45.0712C44.6145 37.3331 44.1628 37.4014 43.7212 37.5164C43.5712 37.5664 43.4378 37.5997 43.3045 37.6497L42.9878 37.7664V26.5498L43.1045 26.6497C43.5828 27.0014 44.1612 27.1947 44.7545 27.1998C46.2645 27.1998 47.4878 25.9764 47.4878 24.4664C47.4878 23.6181 47.0945 22.8164 46.4212 22.2998L42.9878 19.6498V11.0664C42.9912 10.6931 42.6912 10.3864 42.3178 10.3831C42.3128 10.3831 42.3095 10.3831 42.3045 10.3831H38.2045C37.8312 10.3798 37.5245 10.6798 37.5212 11.0531V11.0664V15.4498L31.6495 10.9498C30.6795 10.1948 29.3195 10.1948 28.3495 10.9498L23.4828 14.6831L23.4662 14.7164L23.1495 14.9498L18.2662 18.6998L13.5828 22.2998C12.7228 22.9514 12.3295 24.0514 12.5828 25.0998C12.8078 26.2631 13.7995 27.1231 14.9828 27.1831C15.6662 27.2448 16.3462 27.0548 16.8995 26.6497V26.6331C16.9328 26.6164 16.9662 26.5831 17.0328 26.5498V32.9831C16.9012 32.4964 16.6412 32.0531 16.2828 31.6998C15.7245 31.1331 14.9612 30.8148 14.1662 30.8164H10.6495C10.2945 30.8248 10.0078 31.1114 9.99951 31.4664V47.8831C9.99951 48.2414 10.2912 48.5331 10.6495 48.5331H14.1662C15.4128 48.5381 16.5295 47.7664 16.9662 46.5997C17.0995 46.2664 17.1678 45.9097 17.1662 45.5497V45.5164L19.9645 46.5997L25.7312 48.8331C27.0595 49.3497 28.4728 49.6164 29.8978 49.6164C31.7728 49.6114 33.6195 49.1547 35.2812 48.2831L38.4645 46.5997L41.1978 45.1497L46.8812 42.1331L48.1478 41.4664L49.4645 40.7664C49.5578 40.7197 49.6428 40.6581 49.7145 40.5831C50.0978 40.1981 50.0945 39.5764 49.7112 39.1947ZM15.8662 45.5497C15.8695 45.6964 15.8478 45.8431 15.7995 45.9831C15.7612 46.1164 15.7045 46.2447 15.6328 46.3647C15.5862 46.4481 15.5312 46.5264 15.4662 46.5964L15.4645 46.5997C15.3912 46.6864 15.3128 46.7697 15.2312 46.8498C15.2145 46.8498 15.1978 46.8831 15.1978 46.8831C15.1878 46.8831 15.1812 46.8897 15.1812 46.8997C15.0978 46.9331 15.0145 46.9997 14.9145 47.0497C14.7995 47.1114 14.6762 47.1564 14.5478 47.1831C14.4228 47.2164 14.2945 47.2347 14.1645 47.2331H11.2978V32.1164H14.1662C15.1012 32.1264 15.8562 32.8814 15.8662 33.8164V45.5497ZM38.8812 11.7664H41.6145V18.5998L38.8812 16.4998V11.7664ZM16.0645 25.5498C15.7895 25.7614 15.4428 25.8581 15.0978 25.8164C14.4995 25.8198 13.9928 25.3764 13.9145 24.7831C13.7928 24.2498 13.9945 23.6948 14.4312 23.3664L17.9645 20.6331L23.9812 16.0331L24.2645 15.8164L24.4478 15.6498L29.1812 12.0331C29.6678 11.6781 30.3278 11.6781 30.8145 12.0331L45.5812 23.3831C46.1812 23.8247 46.3078 24.6681 45.8662 25.2681C45.6045 25.6231 45.1878 25.8264 44.7478 25.8164C44.4528 25.8231 44.1645 25.7281 43.9312 25.5498C43.1645 24.9498 31.0478 15.6331 30.4145 15.1498C30.1712 14.9781 29.8478 14.9714 29.5978 15.1331C29.5812 15.1664 16.0812 25.5498 16.0645 25.5498ZM37.1728 38.4764C36.7562 37.4131 35.7312 36.7131 34.5895 36.7114H29.6662C27.9495 34.8864 25.5562 33.8481 23.0495 33.8448H18.3828V25.4998C19.3828 24.7331 28.8662 17.4331 29.9995 16.5498L41.6162 25.4998L41.6145 38.2664L41.2362 38.4064L41.0328 38.4797L40.6895 38.6097L37.3395 39.8264C37.3395 39.7264 37.3728 39.6097 37.3728 39.4931C37.3762 39.1447 37.3078 38.7981 37.1728 38.4764ZM47.3845 40.3981L45.9845 41.1314L38.4245 45.1447L35.6912 46.5947L34.6912 47.1281C32.0678 48.5147 28.9712 48.6914 26.2078 47.6114L23.5912 46.5947H23.5828L19.8328 45.1447L17.1662 44.1164V35.1498H23.0495C25.2845 35.1498 27.4112 36.1164 28.8828 37.7997C29.0145 37.9347 29.1945 38.0114 29.3828 38.0164H34.5828C34.8612 38.0147 35.1345 38.0964 35.3662 38.2498C35.4445 38.2964 35.5178 38.3514 35.5828 38.4164C35.6562 38.4714 35.7178 38.5381 35.7662 38.6164C35.8162 38.6847 35.8612 38.7581 35.8995 38.8331C35.9495 38.9147 35.9845 39.0047 35.9995 39.0997C36.0345 39.1847 36.0512 39.2747 36.0495 39.3664C36.0628 39.4097 36.0695 39.4548 36.0662 39.4998C36.0678 39.6364 36.0462 39.7714 35.9995 39.8997C35.9978 39.9131 35.9928 39.9247 35.9828 39.9331C35.9545 40.0564 35.9045 40.1747 35.8345 40.2797C35.7478 40.4114 35.6395 40.5297 35.5178 40.6297C35.4395 40.7014 35.3495 40.7564 35.2512 40.7964C35.2512 40.8048 35.2445 40.8131 35.2345 40.8131H35.2178C35.0212 40.9131 34.8045 40.9647 34.5845 40.9631H24.7145C24.6295 40.9631 24.5445 40.9814 24.4662 41.0131C24.3845 41.0481 24.3112 41.0981 24.2495 41.1631C24.2045 41.2047 24.1712 41.2564 24.1495 41.3131C24.0995 41.4047 24.0712 41.5081 24.0662 41.6131C24.0662 41.9714 24.3578 42.2631 24.7162 42.2631H34.5828C35.2578 42.2597 35.9095 42.0114 36.4162 41.5631L36.9495 41.3631L41.5828 39.6631L42.2828 39.4131L43.7162 38.8964L43.7495 38.8797C43.9862 38.7931 44.2328 38.7314 44.4828 38.6964V38.6831C44.5162 38.6831 44.5662 38.6664 44.6145 38.6664C45.2345 38.5548 45.8712 38.5781 46.4812 38.7331C46.8495 38.8231 47.2028 38.9631 47.5312 39.1497C47.6812 39.2331 47.8312 39.3164 47.9812 39.4164C48.1562 39.5397 48.3228 39.6731 48.4812 39.8164L47.3845 40.3981Z" fill="#061538" stroke="#061538" stroke-width="0.625"/>
</svg>
